<svg xmlns="http://www.w3.org/2000/svg" xmlns:xlink="http://www.w3.org/1999/xlink" width="500" zoomAndPan="magnify" viewBox="0 0 375 374.999991" height="500" preserveAspectRatio="xMidYMid meet" version="1.0"><defs><clipPath id="52c198b17d"><path d="M 160 37.5 L 235 37.5 L 235 160 L 160 160 Z M 160 37.5 " clip-rule="nonzero"/></clipPath><clipPath id="964e293821"><path d="M 114 255 L 269 255 L 269 337.5 L 114 337.5 Z M 114 255 " clip-rule="nonzero"/></clipPath><clipPath id="89af359a20"><path d="M 307.65625 0 L 375 0 L 375 64.636719 L 307.65625 64.636719 Z M 307.65625 0 " clip-rule="nonzero"/></clipPath></defs><rect x="-37.5" width="450" fill="#ffffff" y="-37.499999" height="449.999989" fill-opacity="1"/><rect x="-37.5" width="450" fill="#ffffff" y="-37.499999" height="449.999989" fill-opacity="1"/><path fill="#4e7896" d="M 160.542969 198.992188 C 160.542969 198.992188 152.542969 203.871094 166.113281 205.265625 C 182.5 207.359375 191.167969 207.007812 209.257812 203.523438 C 209.257812 203.523438 214.128906 206.667969 220.742188 209.105469 C 180.027344 226.53125 128.527344 208.058594 160.542969 198.992188 Z M 155.324219 176.335938 C 155.324219 176.335938 146.625 182.960938 160.195312 184.351562 C 177.9375 186.09375 191.863281 186.445312 215.871094 181.566406 C 215.871094 181.566406 219.007812 185.054688 224.222656 186.796875 C 175.164062 201.4375 120.179688 188.1875 155.324219 176.339844 Z M 251.363281 216.074219 C 251.363281 216.074219 257.277344 220.953125 244.75 224.789062 C 221.4375 231.761719 146.972656 233.855469 126.09375 224.789062 C 118.792969 221.648438 132.707031 217.117188 137.230469 216.425781 C 141.753906 215.378906 144.1875 215.378906 144.1875 215.378906 C 136.183594 209.800781 90.949219 226.882812 121.222656 231.796875 C 204.386719 245.394531 272.9375 225.871094 251.359375 216.109375 Z M 164.371094 152.628906 C 164.371094 152.628906 126.441406 161.695312 150.796875 164.828125 C 161.234375 166.222656 181.765625 165.875 200.902344 164.480469 C 216.5625 163.085938 232.257812 160.296875 232.257812 160.296875 C 232.257812 160.296875 226.6875 162.738281 222.863281 165.175781 C 184.203125 175.292969 110.085938 170.761719 131.316406 160.304688 C 149.414062 151.585938 164.371094 152.628906 164.371094 152.628906 Z M 232.222656 190.625 C 271.199219 170.40625 253.101562 150.886719 240.574219 153.328125 C 237.4375 154.023438 236.046875 154.722656 236.046875 154.722656 C 236.046875 154.722656 237.09375 152.628906 239.527344 151.9375 C 264.234375 143.222656 283.722656 178.082031 231.527344 191.675781 C 231.527344 191.675781 231.875 191.324219 232.222656 190.628906 Z M 168.195312 245.699219 C 205.777344 248.140625 263.191406 244.304688 264.585938 226.523438 C 264.585938 226.523438 261.808594 233.496094 233.617188 238.722656 C 201.605469 244.648438 161.933594 243.953125 138.621094 240.117188 C 138.621094 240.117188 143.492188 244.300781 168.199219 245.695312 Z M 168.195312 245.699219 " fill-opacity="1" fill-rule="nonzero"/><g clip-path="url(#52c198b17d)"><path fill="#f58219" d="M 208.527344 37.597656 C 208.527344 37.597656 230.101562 59.558594 188 92.667969 C 154.246094 119.507812 180.339844 134.847656 188 152.273438 C 168.164062 134.5 153.902344 118.808594 163.640625 104.167969 C 177.941406 82.566406 217.257812 72.109375 208.527344 37.597656 Z M 197.394531 137.640625 C 207.484375 149.140625 194.617188 159.601562 194.617188 159.601562 C 194.617188 159.601562 220.363281 146.359375 208.535156 129.96875 C 197.746094 114.28125 189.394531 106.613281 234.632812 80.464844 C 234.632812 80.464844 163.296875 98.238281 197.402344 137.632812 Z M 197.394531 137.640625 " fill-opacity="1" fill-rule="nonzero"/></g><g clip-path="url(#964e293821)"><path fill="#4e7896" d="M 179.4375 320.324219 L 179.4375 286.167969 C 179.4375 277.453125 174.566406 271.527344 162.386719 271.527344 C 155.429688 271.527344 149.511719 273.269531 144.285156 275.359375 L 146.027344 281.636719 C 149.851562 280.242188 154.726562 278.851562 159.945312 278.851562 C 166.558594 278.851562 169.691406 281.636719 169.691406 287.21875 L 169.691406 291.75 L 166.210938 291.75 C 149.507812 291.75 141.851562 298.023438 141.851562 308.167969 C 141.851562 316.535156 147.070312 321.410156 156.464844 321.410156 C 162.378906 321.410156 166.902344 318.625 171.078125 315.136719 L 171.773438 320.363281 L 179.433594 320.363281 Z M 169.695312 309.171875 C 166.210938 312.3125 162.390625 314.050781 158.90625 314.050781 C 154.378906 314.050781 151.601562 311.265625 151.601562 306.375 C 151.601562 301.488281 154.378906 298.011719 165.519531 298.011719 L 169.695312 298.011719 Z M 212.144531 320.324219 L 199.96875 320.324219 L 185.351562 272.570312 L 195.792969 272.570312 L 204.839844 301.851562 L 206.929688 310.566406 C 211.453125 298.019531 214.929688 285.121094 216.324219 272.570312 L 226.761719 272.570312 C 223.984375 288.257812 219.101562 305.335938 212.148438 320.324219 Z M 268.515625 320.324219 L 268.515625 286.167969 C 268.515625 277.453125 263.644531 271.527344 251.464844 271.527344 C 244.507812 271.527344 238.589844 273.269531 233.363281 275.359375 L 234.753906 281.636719 C 238.929688 280.242188 243.804688 278.851562 249.019531 278.851562 C 255.632812 278.851562 258.765625 281.636719 258.765625 287.21875 L 258.765625 291.75 L 255.285156 291.75 C 238.582031 291.75 230.925781 298.023438 230.925781 308.167969 C 230.925781 316.535156 235.796875 321.410156 245.191406 321.410156 C 251.453125 321.410156 255.976562 318.625 260.152344 315.136719 L 260.847656 320.363281 L 268.507812 320.363281 Z M 258.773438 309.171875 C 255.289062 312.3125 251.46875 314.050781 247.984375 314.050781 C 243.457031 314.050781 240.679688 311.265625 240.679688 306.375 C 240.679688 301.488281 243.457031 298.011719 254.601562 298.011719 L 258.773438 298.011719 Z M 131.070312 328.335938 C 128.292969 332.519531 124.113281 335.65625 118.894531 337.402344 L 114.371094 331.824219 C 117.851562 329.734375 121.328125 326.597656 122.722656 323.808594 C 124.109375 321.367188 124.460938 317.882812 124.460938 309.863281 L 124.460938 255.492188 L 134.898438 255.492188 L 134.898438 309.171875 C 134.898438 319.980469 133.855469 324.160156 131.070312 328.34375 Z M 131.070312 328.335938 " fill-opacity="1" fill-rule="nonzero"/></g><g clip-path="url(#89af359a20)"><path fill="#ffffff" d="M 307.65625 -47.863281 L 420.15625 -47.863281 L 420.15625 64.636719 L 307.65625 64.636719 Z M 307.65625 -47.863281 " fill-opacity="1" fill-rule="nonzero"/></g></svg>