<svg xmlns="http://www.w3.org/2000/svg" xmlns:xlink="http://www.w3.org/1999/xlink" width="500" zoomAndPan="magnify" viewBox="0 0 375 374.999991" height="500" preserveAspectRatio="xMidYMid meet" version="1.0"><defs><clipPath id="83581894fb"><path d="M 41.625 37.5 L 161 37.5 L 161 112 L 41.625 112 Z M 41.625 37.5 " clip-rule="nonzero"/></clipPath><clipPath id="ea05165ecb"><path d="M 41.625 70 L 162 70 L 162 337.5 L 41.625 337.5 Z M 41.625 70 " clip-rule="nonzero"/></clipPath><clipPath id="af90974e40"><path d="M 153 201 L 277 201 L 277 337.5 L 153 337.5 Z M 153 201 " clip-rule="nonzero"/></clipPath><clipPath id="133338464e"><path d="M 268 103 L 333.375 103 L 333.375 210 L 268 210 Z M 268 103 " clip-rule="nonzero"/></clipPath><clipPath id="e7a9f1a85c"><path d="M 210 71 L 333.375 71 L 333.375 144 L 210 144 Z M 210 71 " clip-rule="nonzero"/></clipPath><clipPath id="8ac7dee799"><path d="M 307.65625 0 L 375 0 L 375 64.636719 L 307.65625 64.636719 Z M 307.65625 0 " clip-rule="nonzero"/></clipPath></defs><rect x="-37.5" width="450" fill="#ffffff" y="-37.499999" height="449.999989" fill-opacity="1"/><rect x="-37.5" width="450" fill="#ffffff" y="-37.499999" height="449.999989" fill-opacity="1"/><g clip-path="url(#83581894fb)"><path fill="#ef0a1b" d="M 102.175781 111.152344 C 101.460938 111.152344 100.796875 110.972656 100.175781 110.617188 L 99.785156 110.390625 L 43.695312 77.871094 C 43.394531 77.699219 43.125 77.488281 42.878906 77.242188 C 42.632812 77 42.421875 76.726562 42.25 76.425781 C 42.074219 76.125 41.941406 75.808594 41.851562 75.472656 C 41.757812 75.140625 41.710938 74.796875 41.710938 74.453125 C 41.707031 74.105469 41.75 73.761719 41.835938 73.425781 C 41.921875 73.089844 42.050781 72.773438 42.222656 72.46875 C 42.390625 72.167969 42.597656 71.890625 42.839844 71.644531 C 43.082031 71.394531 43.351562 71.183594 43.648438 71.003906 L 98.417969 38.257812 C 99.046875 37.878906 99.730469 37.691406 100.464844 37.691406 C 101.199219 37.691406 101.882812 37.882812 102.511719 38.261719 L 158.320312 71.714844 C 158.617188 71.894531 158.886719 72.105469 159.128906 72.355469 C 159.367188 72.601562 159.574219 72.875 159.742188 73.175781 C 159.914062 73.476562 160.042969 73.792969 160.128906 74.128906 C 160.214844 74.460938 160.257812 74.800781 160.257812 75.144531 C 160.257812 75.492188 160.210938 75.832031 160.125 76.164062 C 160.035156 76.496094 159.902344 76.816406 159.734375 77.113281 C 159.5625 77.414062 159.355469 77.6875 159.113281 77.933594 C 158.871094 78.179688 158.601562 78.390625 158.304688 78.566406 L 104.203125 110.597656 C 103.578125 110.96875 102.902344 111.152344 102.175781 111.152344 Z M 53.550781 74.371094 L 102.152344 102.546875 L 148.484375 75.113281 L 100.460938 46.324219 Z M 53.550781 74.371094 " fill-opacity="1" fill-rule="nonzero"/></g><g clip-path="url(#ea05165ecb)"><path fill="#ef0a1b" d="M 157.867188 337.5 C 157.179688 337.5 156.535156 337.332031 155.933594 337 L 43.761719 274.726562 C 43.128906 274.375 42.628906 273.886719 42.261719 273.265625 C 41.894531 272.640625 41.710938 271.964844 41.710938 271.242188 L 41.710938 74.421875 C 41.710938 73.710938 41.886719 73.046875 42.242188 72.429688 C 42.601562 71.8125 43.085938 71.324219 43.707031 70.96875 C 44.324219 70.613281 44.988281 70.4375 45.699219 70.4375 C 46.414062 70.4375 47.078125 70.617188 47.695312 70.976562 L 103.78125 103.492188 C 104.394531 103.847656 104.878906 104.332031 105.234375 104.949219 C 105.589844 105.566406 105.769531 106.226562 105.769531 106.9375 L 105.769531 235.894531 L 159.875 267.414062 C 160.488281 267.769531 160.96875 268.257812 161.324219 268.871094 C 161.675781 269.488281 161.855469 270.148438 161.855469 270.859375 L 161.855469 333.511719 C 161.855469 333.773438 161.828125 334.035156 161.777344 334.292969 C 161.726562 334.546875 161.652344 334.796875 161.550781 335.039062 C 161.449219 335.28125 161.328125 335.511719 161.183594 335.726562 C 161.035156 335.945312 160.871094 336.148438 160.6875 336.332031 C 160.5 336.515625 160.300781 336.683594 160.082031 336.828125 C 159.863281 336.972656 159.636719 337.097656 159.394531 337.195312 C 159.152344 337.296875 158.902344 337.371094 158.644531 337.421875 C 158.386719 337.472656 158.128906 337.5 157.867188 337.5 Z M 49.683594 268.894531 L 153.882812 326.742188 L 153.882812 273.148438 L 99.773438 241.628906 C 99.160156 241.273438 98.679688 240.785156 98.324219 240.171875 C 97.972656 239.558594 97.796875 238.894531 97.796875 238.183594 L 97.796875 109.234375 L 49.683594 81.34375 Z M 49.683594 268.894531 " fill-opacity="1" fill-rule="nonzero"/></g><path fill="#ef0a1b" d="M 101.78125 242.171875 C 101.519531 242.171875 101.261719 242.144531 101.003906 242.09375 C 100.746094 242.042969 100.496094 241.96875 100.253906 241.867188 C 100.015625 241.769531 99.785156 241.644531 99.566406 241.5 C 99.347656 241.355469 99.148438 241.1875 98.960938 241.003906 C 98.777344 240.820312 98.613281 240.617188 98.464844 240.398438 C 98.320312 240.183594 98.199219 239.953125 98.097656 239.710938 C 98 239.46875 97.921875 239.21875 97.871094 238.960938 C 97.820312 238.707031 97.796875 238.445312 97.796875 238.183594 L 97.796875 106.9375 C 97.796875 106.441406 97.886719 105.957031 98.066406 105.492188 C 98.25 105.027344 98.507812 104.609375 98.84375 104.242188 C 99.183594 103.875 99.574219 103.582031 100.023438 103.363281 C 100.472656 103.140625 100.945312 103.011719 101.441406 102.96875 L 154.242188 71.707031 C 154.390625 71.617188 154.546875 71.539062 154.707031 71.46875 C 154.867188 71.402344 155.03125 71.34375 155.199219 71.296875 C 155.367188 71.25 155.535156 71.214844 155.707031 71.1875 C 155.882812 71.164062 156.054688 71.152344 156.226562 71.148438 C 156.402344 71.148438 156.574219 71.15625 156.75 71.175781 C 156.921875 71.199219 157.09375 71.230469 157.261719 71.273438 C 157.429688 71.316406 157.59375 71.371094 157.757812 71.433594 C 157.917969 71.5 158.074219 71.574219 158.226562 71.660156 C 158.378906 71.746094 158.523438 71.839844 158.664062 71.945312 C 158.800781 72.050781 158.933594 72.160156 159.058594 72.285156 C 159.183594 72.40625 159.300781 72.535156 159.40625 72.671875 C 159.515625 72.808594 159.613281 72.953125 159.703125 73.101562 C 159.789062 73.25 159.867188 73.40625 159.9375 73.566406 C 160.007812 73.726562 160.0625 73.890625 160.109375 74.058594 C 160.15625 74.222656 160.195312 74.394531 160.21875 74.566406 C 160.242188 74.738281 160.257812 74.914062 160.257812 75.085938 L 161.855469 204.695312 C 161.863281 205.40625 161.691406 206.070312 161.347656 206.691406 C 161 207.3125 160.519531 207.804688 159.910156 208.167969 L 103.824219 241.609375 C 103.195312 241.984375 102.515625 242.171875 101.78125 242.171875 Z M 105.765625 109.671875 L 105.765625 231.167969 L 153.851562 202.496094 L 152.371094 82.074219 Z M 105.765625 109.671875 " fill-opacity="1" fill-rule="nonzero"/><g clip-path="url(#af90974e40)"><path fill="#ef0a1b" d="M 157.867188 337.5 C 157.605469 337.5 157.347656 337.472656 157.089844 337.421875 C 156.832031 337.371094 156.585938 337.296875 156.34375 337.195312 C 156.101562 337.097656 155.871094 336.972656 155.652344 336.828125 C 155.433594 336.683594 155.234375 336.515625 155.050781 336.332031 C 154.863281 336.148438 154.699219 335.945312 154.554688 335.726562 C 154.40625 335.511719 154.285156 335.28125 154.183594 335.039062 C 154.085938 334.796875 154.007812 334.546875 153.957031 334.292969 C 153.90625 334.035156 153.882812 333.777344 153.882812 333.515625 L 153.882812 270.859375 C 153.882812 270.144531 154.0625 269.476562 154.417969 268.859375 C 154.777344 268.242188 155.265625 267.753906 155.886719 267.398438 L 270.050781 202.054688 C 270.203125 201.964844 270.355469 201.890625 270.519531 201.824219 C 270.679688 201.757812 270.84375 201.703125 271.011719 201.660156 C 271.179688 201.613281 271.351562 201.582031 271.523438 201.558594 C 271.695312 201.535156 271.867188 201.527344 272.042969 201.527344 C 272.214844 201.527344 272.390625 201.539062 272.5625 201.5625 C 272.734375 201.585938 272.902344 201.617188 273.070312 201.664062 C 273.238281 201.710938 273.402344 201.765625 273.5625 201.832031 C 273.722656 201.898438 273.878906 201.976562 274.03125 202.0625 C 274.179688 202.152344 274.324219 202.246094 274.460938 202.355469 C 274.601562 202.460938 274.730469 202.574219 274.851562 202.699219 C 274.976562 202.820312 275.089844 202.953125 275.195312 203.089844 C 275.300781 203.226562 275.398438 203.371094 275.484375 203.523438 C 275.570312 203.671875 275.648438 203.828125 275.714844 203.988281 C 275.78125 204.148438 275.835938 204.316406 275.882812 204.484375 C 275.925781 204.652344 275.960938 204.820312 275.984375 204.992188 C 276.003906 205.164062 276.015625 205.339844 276.015625 205.511719 L 276.015625 270.859375 C 276.015625 271.585938 275.832031 272.261719 275.460938 272.890625 C 275.089844 273.515625 274.585938 274.003906 273.949219 274.351562 L 159.785156 337.007812 C 159.1875 337.335938 158.550781 337.5 157.867188 337.5 Z M 161.855469 273.167969 L 161.855469 326.777344 L 268.042969 268.5 L 268.042969 212.386719 Z M 161.855469 273.167969 " fill-opacity="1" fill-rule="nonzero"/></g><path fill="#ef0a1b" d="M 157.867188 274.84375 C 157.148438 274.84375 156.480469 274.664062 155.859375 274.300781 L 99.773438 241.628906 C 99.476562 241.453125 99.203125 241.246094 98.957031 241 C 98.714844 240.753906 98.503906 240.480469 98.332031 240.179688 C 98.15625 239.878906 98.023438 239.5625 97.933594 239.226562 C 97.84375 238.894531 97.796875 238.550781 97.796875 238.207031 C 97.792969 237.859375 97.835938 237.515625 97.925781 237.183594 C 98.011719 236.847656 98.140625 236.527344 98.3125 236.226562 C 98.480469 235.921875 98.6875 235.648438 98.929688 235.398438 C 99.171875 235.152344 99.441406 234.9375 99.738281 234.761719 L 155.824219 201.320312 C 155.867188 201.296875 155.910156 201.273438 155.953125 201.25 L 212.84375 170.113281 C 213.445312 169.78125 214.085938 169.621094 214.773438 169.621094 C 215.457031 169.625 216.097656 169.792969 216.699219 170.125 L 273.972656 202.03125 C 274.597656 202.378906 275.097656 202.863281 275.460938 203.484375 C 275.828125 204.101562 276.011719 204.769531 276.019531 205.488281 C 276.023438 206.207031 275.84375 206.878906 275.484375 207.5 C 275.128906 208.125 274.636719 208.613281 274.011719 208.972656 L 159.847656 274.316406 C 159.234375 274.667969 158.574219 274.84375 157.867188 274.84375 Z M 109.632812 238.144531 L 157.886719 266.253906 L 263.925781 205.558594 L 214.738281 178.164062 L 159.847656 208.207031 Z M 109.632812 238.144531 " fill-opacity="1" fill-rule="nonzero"/><path fill="#ef0a1b" d="M 272.03125 209.5 C 271.339844 209.5 270.695312 209.332031 270.089844 208.996094 L 212.816406 177.089844 C 212.183594 176.738281 211.683594 176.25 211.316406 175.625 C 210.949219 174.996094 210.769531 174.324219 210.769531 173.597656 L 210.964844 107.15625 C 210.964844 106.980469 210.976562 106.808594 211 106.636719 C 211.023438 106.464844 211.054688 106.296875 211.101562 106.128906 C 211.144531 105.960938 211.203125 105.796875 211.269531 105.636719 C 211.335938 105.476562 211.414062 105.320312 211.5 105.171875 C 211.585938 105.019531 211.683594 104.875 211.789062 104.738281 C 211.894531 104.601562 212.007812 104.46875 212.132812 104.347656 C 212.253906 104.226562 212.382812 104.109375 212.523438 104.003906 C 212.660156 103.898438 212.804688 103.804688 212.953125 103.714844 C 213.105469 103.628906 213.257812 103.550781 213.417969 103.484375 C 213.578125 103.417969 213.742188 103.363281 213.910156 103.316406 C 214.078125 103.273438 214.25 103.238281 214.421875 103.214844 C 214.59375 103.191406 214.765625 103.179688 214.9375 103.179688 C 215.113281 103.179688 215.285156 103.191406 215.457031 103.214844 C 215.628906 103.234375 215.800781 103.269531 215.96875 103.3125 C 216.136719 103.355469 216.300781 103.414062 216.460938 103.476562 C 216.621094 103.542969 216.777344 103.621094 216.925781 103.707031 L 274.007812 136.324219 C 274.628906 136.679688 275.117188 137.164062 275.476562 137.785156 C 275.835938 138.402344 276.015625 139.070312 276.015625 139.785156 L 276.015625 205.511719 C 276.015625 205.773438 275.992188 206.035156 275.941406 206.289062 C 275.890625 206.546875 275.8125 206.796875 275.714844 207.039062 C 275.613281 207.28125 275.492188 207.511719 275.34375 207.726562 C 275.199219 207.945312 275.035156 208.148438 274.847656 208.332031 C 274.664062 208.515625 274.464844 208.683594 274.246094 208.828125 C 274.027344 208.972656 273.796875 209.09375 273.554688 209.195312 C 273.3125 209.296875 273.066406 209.371094 272.808594 209.421875 C 272.550781 209.472656 272.292969 209.5 272.03125 209.5 Z M 218.75 171.269531 L 268.042969 198.730469 L 268.042969 142.097656 L 218.917969 114.023438 Z M 218.75 171.269531 " fill-opacity="1" fill-rule="nonzero"/><g clip-path="url(#133338464e)"><path fill="#ef0a1b" d="M 272.03125 209.5 C 271.769531 209.5 271.507812 209.472656 271.253906 209.421875 C 270.996094 209.371094 270.746094 209.296875 270.503906 209.195312 C 270.261719 209.09375 270.035156 208.972656 269.816406 208.828125 C 269.597656 208.679688 269.398438 208.515625 269.210938 208.332031 C 269.027344 208.144531 268.863281 207.945312 268.714844 207.726562 C 268.570312 207.507812 268.449219 207.28125 268.347656 207.039062 C 268.246094 206.796875 268.171875 206.546875 268.121094 206.289062 C 268.070312 206.035156 268.042969 205.773438 268.042969 205.511719 L 268.042969 139.785156 C 268.042969 139.066406 268.222656 138.398438 268.585938 137.78125 C 268.945312 137.160156 269.4375 136.675781 270.058594 136.320312 L 327.332031 103.703125 C 327.484375 103.617188 327.636719 103.542969 327.800781 103.476562 C 327.960938 103.410156 328.125 103.355469 328.292969 103.3125 C 328.460938 103.265625 328.632812 103.234375 328.804688 103.210938 C 328.976562 103.191406 329.148438 103.179688 329.320312 103.179688 C 329.496094 103.183594 329.667969 103.195312 329.839844 103.21875 C 330.011719 103.242188 330.183594 103.273438 330.351562 103.320312 C 330.519531 103.367188 330.683594 103.421875 330.84375 103.488281 C 331.003906 103.554688 331.15625 103.632812 331.308594 103.722656 C 331.457031 103.808594 331.601562 103.90625 331.738281 104.011719 C 331.875 104.117188 332.007812 104.230469 332.128906 104.355469 C 332.253906 104.476562 332.367188 104.609375 332.472656 104.746094 C 332.578125 104.882812 332.671875 105.027344 332.757812 105.179688 C 332.847656 105.328125 332.921875 105.484375 332.988281 105.644531 C 333.054688 105.804688 333.109375 105.96875 333.15625 106.136719 C 333.199219 106.304688 333.234375 106.476562 333.257812 106.648438 C 333.28125 106.820312 333.289062 106.992188 333.289062 107.167969 L 333.289062 173.609375 C 333.289062 174.332031 333.109375 175.003906 332.742188 175.628906 C 332.375 176.25 331.875 176.738281 331.246094 177.089844 L 273.96875 208.996094 C 273.367188 209.332031 272.722656 209.5 272.03125 209.5 Z M 276.015625 142.101562 L 276.015625 198.730469 L 325.316406 171.265625 L 325.316406 114.023438 Z M 276.015625 142.101562 " fill-opacity="1" fill-rule="nonzero"/></g><g clip-path="url(#e7a9f1a85c)"><path fill="#ef0a1b" d="M 272.03125 143.769531 C 271.324219 143.769531 270.664062 143.59375 270.054688 143.246094 L 212.972656 110.628906 C 212.347656 110.269531 211.859375 109.78125 211.5 109.160156 C 211.140625 108.539062 210.960938 107.867188 210.964844 107.152344 C 210.964844 106.433594 211.148438 105.765625 211.515625 105.144531 C 211.878906 104.527344 212.375 104.042969 213 103.691406 L 270.078125 71.660156 C 270.683594 71.320312 271.335938 71.148438 272.027344 71.148438 C 272.722656 71.148438 273.371094 71.316406 273.976562 71.65625 L 331.25 103.6875 C 331.878906 104.039062 332.375 104.523438 332.738281 105.144531 C 333.105469 105.761719 333.289062 106.433594 333.289062 107.152344 C 333.292969 107.871094 333.113281 108.539062 332.753906 109.164062 C 332.394531 109.785156 331.902344 110.273438 331.277344 110.628906 L 274.003906 143.246094 C 273.390625 143.597656 272.734375 143.769531 272.03125 143.769531 Z M 223.039062 107.199219 L 272.035156 135.195312 L 321.195312 107.199219 L 272.035156 79.703125 Z M 223.039062 107.199219 " fill-opacity="1" fill-rule="nonzero"/></g><g clip-path="url(#8ac7dee799)"><path fill="#ffffff" d="M 307.65625 -47.863281 L 420.15625 -47.863281 L 420.15625 64.636719 L 307.65625 64.636719 Z M 307.65625 -47.863281 " fill-opacity="1" fill-rule="nonzero"/></g></svg>